<svg width="268" height="152" viewBox="0 0 268 152" fill="none" xmlns="http://www.w3.org/2000/svg">
<g clip-path="url(#clip0_67_1345)">
<g filter="url(#filter0_f_67_1345)">
<path d="M402 228L-134 228L-134 -76L402 -75.9999L402 228Z" fill="#E9D5FF"/>
<path d="M307.442 183L322.611 31L149.676 13.2L129.449 152" fill="#D9F99D"/>
<path d="M91.019 166L233.615 1.00005L220.468 -33.8L49.5549 113" fill="#E9D5FF"/>
<path d="M126.415 100L151.698 -69L91.019 -86.8L-35.3961 3" fill="#E9D5FF"/>
<path d="M196.196 87L311.487 28L305.419 -70.8L151.698 75M109.223 32L215.411 -82L131.472 -145.8L16.1812 -91" fill="white"/>
<path d="M-50.5661 32L131.472 -142L-33.3736 -183.8L-67.7585 -129" fill="#E9D5FF"/>
</g>
<path d="M54.604 41V32.96H52.132V32.06H58.012V32.96H55.564V41H54.604ZM61.2329 41.144C60.6249 41.144 60.0729 41 59.5769 40.712C59.0809 40.416 58.6849 40.016 58.3889 39.512C58.1009 39 57.9569 38.42 57.9569 37.772C57.9569 37.132 58.1009 36.56 58.3889 36.056C58.6769 35.552 59.0649 35.156 59.5529 34.868C60.0489 34.572 60.6089 34.424 61.2329 34.424C61.8569 34.424 62.4129 34.568 62.9009 34.856C63.3969 35.144 63.7849 35.54 64.0649 36.044C64.3529 36.548 64.4969 37.124 64.4969 37.772C64.4969 38.428 64.3489 39.012 64.0529 39.524C63.7569 40.028 63.3609 40.424 62.8649 40.712C62.3769 41 61.8329 41.144 61.2329 41.144ZM61.2329 40.244C61.6649 40.244 62.0529 40.136 62.3969 39.92C62.7489 39.704 63.0249 39.408 63.2249 39.032C63.4329 38.656 63.5369 38.236 63.5369 37.772C63.5369 37.308 63.4329 36.892 63.2249 36.524C63.0249 36.156 62.7489 35.864 62.3969 35.648C62.0529 35.432 61.6649 35.324 61.2329 35.324C60.8009 35.324 60.4089 35.432 60.0569 35.648C59.7129 35.864 59.4369 36.156 59.2289 36.524C59.0209 36.892 58.9169 37.308 58.9169 37.772C58.9169 38.236 59.0209 38.656 59.2289 39.032C59.4369 39.408 59.7129 39.704 60.0569 39.92C60.4089 40.136 60.8009 40.244 61.2329 40.244ZM68.427 41.072C67.851 41.072 67.407 40.904 67.095 40.568C66.783 40.232 66.627 39.752 66.627 39.128V35.468H65.439V34.568H65.739C66.011 34.568 66.227 34.48 66.387 34.304C66.547 34.12 66.627 33.892 66.627 33.62V33.08H67.527V34.568H68.943V35.468H67.527V39.128C67.527 39.344 67.559 39.536 67.623 39.704C67.687 39.864 67.795 39.992 67.947 40.088C68.107 40.184 68.319 40.232 68.583 40.232C68.647 40.232 68.723 40.228 68.811 40.22C68.899 40.212 68.975 40.204 69.039 40.196V41C68.943 41.024 68.835 41.04 68.715 41.048C68.595 41.064 68.499 41.072 68.427 41.072ZM72.3621 41.144C71.9541 41.144 71.5901 41.068 71.2701 40.916C70.9501 40.756 70.6981 40.54 70.5141 40.268C70.3301 39.996 70.2381 39.684 70.2381 39.332C70.2381 38.996 70.3101 38.692 70.4541 38.42C70.5981 38.14 70.8221 37.904 71.1261 37.712C71.4301 37.52 71.8181 37.384 72.2901 37.304L74.8101 36.884V37.7L72.5061 38.084C72.0421 38.164 71.7061 38.312 71.4981 38.528C71.2981 38.744 71.1981 39 71.1981 39.296C71.1981 39.584 71.3101 39.828 71.5341 40.028C71.7661 40.228 72.0621 40.328 72.4221 40.328C72.8621 40.328 73.2461 40.236 73.5741 40.052C73.9021 39.86 74.1581 39.604 74.3421 39.284C74.5261 38.964 74.6181 38.608 74.6181 38.216V36.584C74.6181 36.2 74.4781 35.888 74.1981 35.648C73.9181 35.408 73.5541 35.288 73.1061 35.288C72.7141 35.288 72.3701 35.388 72.0741 35.588C71.7781 35.78 71.5581 36.032 71.4141 36.344L70.5981 35.9C70.7181 35.628 70.9061 35.38 71.1621 35.156C71.4261 34.932 71.7261 34.756 72.0621 34.628C72.3981 34.492 72.7461 34.424 73.1061 34.424C73.5781 34.424 73.9941 34.516 74.3541 34.7C74.7221 34.884 75.0061 35.14 75.2061 35.468C75.4141 35.788 75.5181 36.16 75.5181 36.584V41H74.6181V39.716L74.7501 39.848C74.6381 40.088 74.4621 40.308 74.2221 40.508C73.9901 40.7 73.7141 40.856 73.3941 40.976C73.0821 41.088 72.7381 41.144 72.3621 41.144ZM77.3693 41V31.916H78.2693V41H77.3693ZM84.0106 41.144C83.6026 41.144 83.2386 41.068 82.9186 40.916C82.5986 40.756 82.3466 40.54 82.1626 40.268C81.9786 39.996 81.8866 39.684 81.8866 39.332C81.8866 38.996 81.9586 38.692 82.1026 38.42C82.2466 38.14 82.4706 37.904 82.7746 37.712C83.0786 37.52 83.4666 37.384 83.9386 37.304L86.4586 36.884V37.7L84.1546 38.084C83.6906 38.164 83.3546 38.312 83.1466 38.528C82.9466 38.744 82.8466 39 82.8466 39.296C82.8466 39.584 82.9586 39.828 83.1826 40.028C83.4146 40.228 83.7106 40.328 84.0706 40.328C84.5106 40.328 84.8946 40.236 85.2226 40.052C85.5506 39.86 85.8066 39.604 85.9906 39.284C86.1746 38.964 86.2666 38.608 86.2666 38.216V36.584C86.2666 36.2 86.1266 35.888 85.8466 35.648C85.5666 35.408 85.2026 35.288 84.7546 35.288C84.3626 35.288 84.0186 35.388 83.7226 35.588C83.4266 35.78 83.2066 36.032 83.0626 36.344L82.2466 35.9C82.3666 35.628 82.5546 35.38 82.8106 35.156C83.0746 34.932 83.3746 34.756 83.7106 34.628C84.0466 34.492 84.3946 34.424 84.7546 34.424C85.2266 34.424 85.6426 34.516 86.0026 34.7C86.3706 34.884 86.6546 35.14 86.8546 35.468C87.0626 35.788 87.1666 36.16 87.1666 36.584V41H86.2666V39.716L86.3986 39.848C86.2866 40.088 86.1106 40.308 85.8706 40.508C85.6386 40.7 85.3626 40.856 85.0426 40.976C84.7306 41.088 84.3866 41.144 84.0106 41.144ZM91.9578 41.144C91.3258 41.144 90.7698 40.996 90.2898 40.7C89.8098 40.404 89.4338 40.004 89.1618 39.5C88.8898 38.988 88.7538 38.412 88.7538 37.772C88.7538 37.132 88.8898 36.56 89.1618 36.056C89.4338 35.552 89.8098 35.156 90.2898 34.868C90.7698 34.572 91.3258 34.424 91.9578 34.424C92.3578 34.424 92.7338 34.496 93.0858 34.64C93.4378 34.784 93.7498 34.98 94.0218 35.228C94.2938 35.468 94.4978 35.748 94.6338 36.068L93.8178 36.488C93.6578 36.144 93.4138 35.864 93.0858 35.648C92.7578 35.432 92.3818 35.324 91.9578 35.324C91.5338 35.324 91.1498 35.432 90.8058 35.648C90.4698 35.856 90.2018 36.148 90.0018 36.524C89.8098 36.892 89.7138 37.312 89.7138 37.784C89.7138 38.248 89.8098 38.668 90.0018 39.044C90.2018 39.412 90.4698 39.704 90.8058 39.92C91.1498 40.136 91.5338 40.244 91.9578 40.244C92.3818 40.244 92.7538 40.136 93.0738 39.92C93.4018 39.704 93.6498 39.416 93.8178 39.056L94.6338 39.5C94.4978 39.812 94.2938 40.092 94.0218 40.34C93.7498 40.588 93.4378 40.784 93.0858 40.928C92.7338 41.072 92.3578 41.144 91.9578 41.144ZM98.6731 41.072C98.0971 41.072 97.6531 40.904 97.3411 40.568C97.0291 40.232 96.8731 39.752 96.8731 39.128V35.468H95.6851V34.568H95.9851C96.2571 34.568 96.4731 34.48 96.6331 34.304C96.7931 34.12 96.8731 33.892 96.8731 33.62V33.08H97.7731V34.568H99.1891V35.468H97.7731V39.128C97.7731 39.344 97.8051 39.536 97.8691 39.704C97.9331 39.864 98.0411 39.992 98.1931 40.088C98.3531 40.184 98.5651 40.232 98.8291 40.232C98.8931 40.232 98.9691 40.228 99.0571 40.22C99.1451 40.212 99.2211 40.204 99.2851 40.196V41C99.1891 41.024 99.0811 41.04 98.9611 41.048C98.8411 41.064 98.7451 41.072 98.6731 41.072ZM100.865 41V34.568H101.765V41H100.865ZM100.865 33.38V32.06H101.765V33.38H100.865ZM105.324 41L102.816 34.568H103.824L105.936 40.208H105.612L107.736 34.568H108.756L106.224 41H105.324ZM112.618 41.144C112.018 41.144 111.474 41 110.986 40.712C110.506 40.416 110.126 40.012 109.846 39.5C109.566 38.988 109.426 38.408 109.426 37.76C109.426 37.112 109.562 36.54 109.834 36.044C110.106 35.54 110.474 35.144 110.938 34.856C111.41 34.568 111.938 34.424 112.522 34.424C112.986 34.424 113.398 34.512 113.758 34.688C114.126 34.856 114.438 35.088 114.694 35.384C114.95 35.672 115.146 36 115.282 36.368C115.418 36.728 115.486 37.1 115.486 37.484C115.486 37.564 115.482 37.656 115.474 37.76C115.466 37.856 115.454 37.956 115.438 38.06H110.002V37.22H114.922L114.49 37.58C114.562 37.14 114.51 36.748 114.334 36.404C114.166 36.052 113.922 35.776 113.602 35.576C113.282 35.368 112.922 35.264 112.522 35.264C112.122 35.264 111.75 35.368 111.406 35.576C111.07 35.784 110.806 36.076 110.614 36.452C110.422 36.82 110.346 37.26 110.386 37.772C110.346 38.284 110.426 38.732 110.626 39.116C110.834 39.492 111.114 39.784 111.466 39.992C111.826 40.2 112.21 40.304 112.618 40.304C113.09 40.304 113.486 40.192 113.806 39.968C114.126 39.744 114.386 39.464 114.586 39.128L115.354 39.536C115.226 39.824 115.03 40.092 114.766 40.34C114.502 40.58 114.186 40.776 113.818 40.928C113.458 41.072 113.058 41.144 112.618 41.144ZM122.052 41.144C121.42 41.144 120.864 40.996 120.384 40.7C119.904 40.404 119.528 40.004 119.256 39.5C118.984 38.988 118.848 38.412 118.848 37.772C118.848 37.132 118.984 36.56 119.256 36.056C119.528 35.552 119.904 35.156 120.384 34.868C120.864 34.572 121.42 34.424 122.052 34.424C122.452 34.424 122.828 34.496 123.18 34.64C123.532 34.784 123.844 34.98 124.116 35.228C124.388 35.468 124.592 35.748 124.728 36.068L123.912 36.488C123.752 36.144 123.508 35.864 123.18 35.648C122.852 35.432 122.476 35.324 122.052 35.324C121.628 35.324 121.244 35.432 120.9 35.648C120.564 35.856 120.296 36.148 120.096 36.524C119.904 36.892 119.808 37.312 119.808 37.784C119.808 38.248 119.904 38.668 120.096 39.044C120.296 39.412 120.564 39.704 120.9 39.92C121.244 40.136 121.628 40.244 122.052 40.244C122.476 40.244 122.848 40.136 123.168 39.92C123.496 39.704 123.744 39.416 123.912 39.056L124.728 39.5C124.592 39.812 124.388 40.092 124.116 40.34C123.844 40.588 123.532 40.784 123.18 40.928C122.828 41.072 122.452 41.144 122.052 41.144ZM129.319 41.144C128.711 41.144 128.159 41 127.663 40.712C127.167 40.416 126.771 40.016 126.475 39.512C126.187 39 126.043 38.42 126.043 37.772C126.043 37.132 126.187 36.56 126.475 36.056C126.763 35.552 127.151 35.156 127.639 34.868C128.135 34.572 128.695 34.424 129.319 34.424C129.943 34.424 130.499 34.568 130.987 34.856C131.483 35.144 131.871 35.54 132.151 36.044C132.439 36.548 132.583 37.124 132.583 37.772C132.583 38.428 132.435 39.012 132.139 39.524C131.843 40.028 131.447 40.424 130.951 40.712C130.463 41 129.919 41.144 129.319 41.144ZM129.319 40.244C129.751 40.244 130.139 40.136 130.483 39.92C130.835 39.704 131.111 39.408 131.311 39.032C131.519 38.656 131.623 38.236 131.623 37.772C131.623 37.308 131.519 36.892 131.311 36.524C131.111 36.156 130.835 35.864 130.483 35.648C130.139 35.432 129.751 35.324 129.319 35.324C128.887 35.324 128.495 35.432 128.143 35.648C127.799 35.864 127.523 36.156 127.315 36.524C127.107 36.892 127.003 37.308 127.003 37.772C127.003 38.236 127.107 38.656 127.315 39.032C127.523 39.408 127.799 39.704 128.143 39.92C128.495 40.136 128.887 40.244 129.319 40.244ZM134.17 41V34.568H135.07V35.792L134.926 35.612C135.102 35.236 135.362 34.944 135.706 34.736C136.058 34.528 136.442 34.424 136.858 34.424C137.354 34.424 137.802 34.564 138.202 34.844C138.602 35.124 138.886 35.488 139.054 35.936L138.802 35.948C138.962 35.452 139.238 35.076 139.63 34.82C140.03 34.556 140.47 34.424 140.95 34.424C141.382 34.424 141.778 34.528 142.138 34.736C142.506 34.944 142.798 35.232 143.014 35.6C143.238 35.96 143.35 36.368 143.35 36.824V41H142.45V37.172C142.45 36.78 142.378 36.448 142.234 36.176C142.098 35.904 141.91 35.696 141.67 35.552C141.43 35.4 141.154 35.324 140.842 35.324C140.538 35.324 140.262 35.4 140.014 35.552C139.766 35.696 139.57 35.908 139.426 36.188C139.282 36.46 139.21 36.788 139.21 37.172V41H138.31V37.172C138.31 36.78 138.238 36.448 138.094 36.176C137.958 35.904 137.77 35.696 137.53 35.552C137.29 35.4 137.014 35.324 136.702 35.324C136.39 35.324 136.11 35.4 135.862 35.552C135.622 35.696 135.43 35.908 135.286 36.188C135.142 36.46 135.07 36.788 135.07 37.172V41H134.17ZM145.069 43.4V34.568H145.969V36.008L145.825 35.756C146.081 35.348 146.421 35.024 146.845 34.784C147.277 34.544 147.769 34.424 148.321 34.424C148.929 34.424 149.469 34.572 149.941 34.868C150.421 35.156 150.797 35.552 151.069 36.056C151.349 36.56 151.489 37.136 151.489 37.784C151.489 38.424 151.349 39 151.069 39.512C150.797 40.016 150.421 40.416 149.941 40.712C149.469 41 148.929 41.144 148.321 41.144C147.769 41.144 147.269 41.02 146.821 40.772C146.381 40.516 146.049 40.156 145.825 39.692L145.969 39.56V43.4H145.069ZM148.273 40.244C148.705 40.244 149.089 40.136 149.425 39.92C149.769 39.704 150.037 39.412 150.229 39.044C150.429 38.668 150.529 38.248 150.529 37.784C150.529 37.312 150.429 36.892 150.229 36.524C150.037 36.156 149.769 35.864 149.425 35.648C149.089 35.432 148.705 35.324 148.273 35.324C147.841 35.324 147.449 35.432 147.097 35.648C146.753 35.864 146.477 36.16 146.269 36.536C146.069 36.904 145.969 37.32 145.969 37.784C145.969 38.248 146.069 38.668 146.269 39.044C146.477 39.412 146.753 39.704 147.097 39.92C147.449 40.136 147.841 40.244 148.273 40.244ZM154.932 41.144C154.524 41.144 154.16 41.068 153.84 40.916C153.52 40.756 153.268 40.54 153.084 40.268C152.9 39.996 152.808 39.684 152.808 39.332C152.808 38.996 152.88 38.692 153.024 38.42C153.168 38.14 153.392 37.904 153.696 37.712C154 37.52 154.388 37.384 154.86 37.304L157.38 36.884V37.7L155.076 38.084C154.612 38.164 154.276 38.312 154.068 38.528C153.868 38.744 153.768 39 153.768 39.296C153.768 39.584 153.88 39.828 154.104 40.028C154.336 40.228 154.632 40.328 154.992 40.328C155.432 40.328 155.816 40.236 156.144 40.052C156.472 39.86 156.728 39.604 156.912 39.284C157.096 38.964 157.188 38.608 157.188 38.216V36.584C157.188 36.2 157.048 35.888 156.768 35.648C156.488 35.408 156.124 35.288 155.676 35.288C155.284 35.288 154.94 35.388 154.644 35.588C154.348 35.78 154.128 36.032 153.984 36.344L153.168 35.9C153.288 35.628 153.476 35.38 153.732 35.156C153.996 34.932 154.296 34.756 154.632 34.628C154.968 34.492 155.316 34.424 155.676 34.424C156.148 34.424 156.564 34.516 156.924 34.7C157.292 34.884 157.576 35.14 157.776 35.468C157.984 35.788 158.088 36.16 158.088 36.584V41H157.188V39.716L157.32 39.848C157.208 40.088 157.032 40.308 156.792 40.508C156.56 40.7 156.284 40.856 155.964 40.976C155.652 41.088 155.308 41.144 154.932 41.144ZM159.94 41V34.568H160.84V35.816L160.636 35.768C160.796 35.352 161.056 35.024 161.416 34.784C161.784 34.544 162.208 34.424 162.688 34.424C163.144 34.424 163.552 34.528 163.912 34.736C164.28 34.944 164.568 35.232 164.776 35.6C164.992 35.96 165.1 36.368 165.1 36.824V41H164.2V37.172C164.2 36.78 164.128 36.448 163.984 36.176C163.848 35.904 163.652 35.696 163.396 35.552C163.148 35.4 162.86 35.324 162.532 35.324C162.204 35.324 161.912 35.4 161.656 35.552C161.4 35.696 161.2 35.908 161.056 36.188C160.912 36.46 160.84 36.788 160.84 37.172V41H159.94ZM166.819 41V34.568H167.719V41H166.819ZM166.819 33.38V32.06H167.719V33.38H166.819ZM172.489 41.144C171.889 41.144 171.345 41 170.857 40.712C170.377 40.416 169.997 40.012 169.717 39.5C169.437 38.988 169.297 38.408 169.297 37.76C169.297 37.112 169.433 36.54 169.705 36.044C169.977 35.54 170.345 35.144 170.809 34.856C171.281 34.568 171.809 34.424 172.393 34.424C172.857 34.424 173.269 34.512 173.629 34.688C173.997 34.856 174.309 35.088 174.565 35.384C174.821 35.672 175.017 36 175.153 36.368C175.289 36.728 175.357 37.1 175.357 37.484C175.357 37.564 175.353 37.656 175.345 37.76C175.337 37.856 175.325 37.956 175.309 38.06H169.873V37.22H174.793L174.361 37.58C174.433 37.14 174.381 36.748 174.205 36.404C174.037 36.052 173.793 35.776 173.473 35.576C173.153 35.368 172.793 35.264 172.393 35.264C171.993 35.264 171.621 35.368 171.277 35.576C170.941 35.784 170.677 36.076 170.485 36.452C170.293 36.82 170.217 37.26 170.257 37.772C170.217 38.284 170.297 38.732 170.497 39.116C170.705 39.492 170.985 39.784 171.337 39.992C171.697 40.2 172.081 40.304 172.489 40.304C172.961 40.304 173.357 40.192 173.677 39.968C173.997 39.744 174.257 39.464 174.457 39.128L175.225 39.536C175.097 39.824 174.901 40.092 174.637 40.34C174.373 40.58 174.057 40.776 173.689 40.928C173.329 41.072 172.929 41.144 172.489 41.144ZM179.176 41.144C178.56 41.144 178.02 40.988 177.556 40.676C177.092 40.364 176.756 39.94 176.548 39.404L177.304 39.044C177.488 39.436 177.744 39.748 178.072 39.98C178.408 40.212 178.776 40.328 179.176 40.328C179.56 40.328 179.884 40.236 180.148 40.052C180.412 39.86 180.544 39.612 180.544 39.308C180.544 39.084 180.48 38.908 180.352 38.78C180.224 38.644 180.076 38.54 179.908 38.468C179.74 38.396 179.592 38.344 179.464 38.312L178.54 38.048C177.948 37.88 177.52 37.644 177.256 37.34C176.992 37.036 176.86 36.684 176.86 36.284C176.86 35.908 176.956 35.58 177.148 35.3C177.34 35.02 177.6 34.804 177.928 34.652C178.256 34.5 178.62 34.424 179.02 34.424C179.564 34.424 180.056 34.568 180.496 34.856C180.944 35.136 181.26 35.528 181.444 36.032L180.676 36.392C180.516 36.032 180.284 35.752 179.98 35.552C179.684 35.344 179.352 35.24 178.984 35.24C178.624 35.24 178.336 35.332 178.12 35.516C177.904 35.7 177.796 35.932 177.796 36.212C177.796 36.428 177.852 36.6 177.964 36.728C178.076 36.856 178.204 36.952 178.348 37.016C178.5 37.08 178.632 37.128 178.744 37.16L179.812 37.472C180.332 37.624 180.736 37.86 181.024 38.18C181.32 38.5 181.468 38.876 181.468 39.308C181.468 39.66 181.368 39.976 181.168 40.256C180.976 40.536 180.708 40.756 180.364 40.916C180.02 41.068 179.624 41.144 179.176 41.144Z" fill="#111827"/>
<path d="M70.06 118.72C67.14 118.72 64.54 118.08 62.26 116.8C59.98 115.52 58.18 113.76 56.86 111.52C55.58 109.28 54.94 106.74 54.94 103.9C54.94 102.42 55.1 100.94 55.42 99.46C55.74 97.98 56.3 96.44 57.1 94.84C57.94 93.24 59.06 91.52 60.46 89.68L72.94 73.3H81.4L66.1 93.1L64.9 92.32C65.46 91.68 66.06 91.18 66.7 90.82C67.38 90.46 68.08 90.2 68.8 90.04C69.56 89.88 70.36 89.8 71.2 89.8C73.88 89.8 76.28 90.42 78.4 91.66C80.52 92.9 82.18 94.58 83.38 96.7C84.62 98.82 85.24 101.26 85.24 104.02C85.24 106.82 84.58 109.34 83.26 111.58C81.94 113.78 80.14 115.52 77.86 116.8C75.62 118.08 73.02 118.72 70.06 118.72ZM70.06 112.42C71.62 112.42 73 112.06 74.2 111.34C75.4 110.62 76.36 109.64 77.08 108.4C77.8 107.12 78.16 105.68 78.16 104.08C78.16 102.44 77.8 101 77.08 99.76C76.4 98.52 75.44 97.56 74.2 96.88C73 96.16 71.62 95.8 70.06 95.8C68.54 95.8 67.16 96.16 65.92 96.88C64.72 97.56 63.76 98.52 63.04 99.76C62.32 101 61.96 102.44 61.96 104.08C61.96 105.68 62.32 107.12 63.04 108.4C63.76 109.64 64.72 110.62 65.92 111.34C67.16 112.06 68.54 112.42 70.06 112.42ZM92.5352 118L111.615 79.3H90.1352V73.3H118.995V79.3L100.215 118H92.5352ZM142.798 118.72C139.238 118.72 136.118 117.76 133.438 115.84C130.758 113.88 128.658 111.18 127.138 107.74C125.658 104.26 124.918 100.22 124.918 95.62C124.918 90.98 125.658 86.94 127.138 83.5C128.658 80.06 130.738 77.38 133.378 75.46C136.058 73.54 139.178 72.58 142.738 72.58C146.298 72.58 149.398 73.54 152.038 75.46C154.718 77.38 156.798 80.08 158.278 83.56C159.798 87 160.558 91.02 160.558 95.62C160.558 100.22 159.818 104.26 158.338 107.74C156.858 111.18 154.778 113.88 152.098 115.84C149.458 117.76 146.358 118.72 142.798 118.72ZM142.798 112.24C144.998 112.24 146.898 111.56 148.498 110.2C150.098 108.84 151.338 106.92 152.218 104.44C153.098 101.96 153.538 99.02 153.538 95.62C153.538 92.22 153.098 89.28 152.218 86.8C151.338 84.32 150.098 82.4 148.498 81.04C146.898 79.68 144.978 79 142.738 79C140.538 79 138.638 79.68 137.038 81.04C135.438 82.4 134.198 84.32 133.318 86.8C132.438 89.28 131.998 92.22 131.998 95.62C131.998 98.98 132.438 101.92 133.318 104.44C134.198 106.92 135.438 108.84 137.038 110.2C138.678 111.56 140.598 112.24 142.798 112.24Z" fill="#111827"/>
<rect x="28" y="36" width="16" height="2" rx="1" fill="#111827"/>
</g>
<defs>
<filter id="filter0_f_67_1345" x="-190.71" y="-240.51" width="649.42" height="525.22" filterUnits="userSpaceOnUse" color-interpolation-filters="sRGB">
<feFlood flood-opacity="0" result="BackgroundImageFix"/>
<feBlend mode="normal" in="SourceGraphic" in2="BackgroundImageFix" result="shape"/>
<feGaussianBlur stdDeviation="28.355" result="effect1_foregroundBlur_67_1345"/>
</filter>
<clipPath id="clip0_67_1345">
<rect x="268" y="152" width="268" height="152" rx="4" transform="rotate(-180 268 152)" fill="white"/>
</clipPath>
</defs>
</svg>
