<svg width="268" height="152" viewBox="0 0 268 152" fill="none" xmlns="http://www.w3.org/2000/svg">
<g clip-path="url(#clip0_67_1355)">
<g filter="url(#filter0_f_67_1355)">
<path d="M-134 -76H402V228H-134V-76Z" fill="#E9D5FF"/>
<path d="M-6.06787 -16L-60.6792 104L125.404 191.8L149.676 154" fill="white"/>
<path d="M70.7925 -45L54.6113 83L64.7245 163.8L269.011 12" fill="#D9F99D"/>
<path d="M306.43 39L144.619 195L215.411 229.8L328.679 228" fill="#E9D5FF"/>
<path d="M47.5323 46L-67.7583 158L11.1247 219.8L110.234 75" fill="#D9F99D"/>
<path d="M44.4979 141L40.4526 205L220.468 318.8L221.479 285" fill="#E9D5FF"/>
<path d="M209.343 105L141.585 115L197.208 308.8L340.815 119" fill="#E9D5FF"/>
</g>
<path d="M53.056 41V32.06H53.896L59.14 39.584H58.816V32.06H59.776V41H58.936L53.692 33.428H54.016V41H53.056ZM64.6879 41.144C64.0879 41.144 63.5439 41 63.0559 40.712C62.5759 40.416 62.1959 40.012 61.9159 39.5C61.6359 38.988 61.4959 38.408 61.4959 37.76C61.4959 37.112 61.6319 36.54 61.9039 36.044C62.1759 35.54 62.5439 35.144 63.0079 34.856C63.4799 34.568 64.0079 34.424 64.5919 34.424C65.0559 34.424 65.4679 34.512 65.8279 34.688C66.1959 34.856 66.5079 35.088 66.7639 35.384C67.0199 35.672 67.2159 36 67.3519 36.368C67.4879 36.728 67.5559 37.1 67.5559 37.484C67.5559 37.564 67.5519 37.656 67.5439 37.76C67.5359 37.856 67.5239 37.956 67.5079 38.06H62.0719V37.22H66.9919L66.5599 37.58C66.6319 37.14 66.5799 36.748 66.4039 36.404C66.2359 36.052 65.9919 35.776 65.6719 35.576C65.3519 35.368 64.9919 35.264 64.5919 35.264C64.1919 35.264 63.8199 35.368 63.4759 35.576C63.1399 35.784 62.8759 36.076 62.6839 36.452C62.4919 36.82 62.4159 37.26 62.4559 37.772C62.4159 38.284 62.4959 38.732 62.6959 39.116C62.9039 39.492 63.1839 39.784 63.5359 39.992C63.8959 40.2 64.2799 40.304 64.6879 40.304C65.1599 40.304 65.5559 40.192 65.8759 39.968C66.1959 39.744 66.4559 39.464 66.6559 39.128L67.4239 39.536C67.2959 39.824 67.0999 40.092 66.8359 40.34C66.5719 40.58 66.2559 40.776 65.8879 40.928C65.5279 41.072 65.1279 41.144 64.6879 41.144ZM70.5588 41L68.3508 34.568H69.3708L71.1948 40.196H70.8348L72.5508 34.568H73.4508L75.1668 40.196H74.8068L76.6428 34.568H77.6508L75.4428 41H74.5428L72.8748 35.492H73.1268L71.4588 41H70.5588ZM83.6843 41.144C83.0523 41.144 82.4963 40.996 82.0163 40.7C81.5363 40.404 81.1603 40.004 80.8883 39.5C80.6163 38.988 80.4803 38.412 80.4803 37.772C80.4803 37.132 80.6163 36.56 80.8883 36.056C81.1603 35.552 81.5363 35.156 82.0163 34.868C82.4963 34.572 83.0523 34.424 83.6843 34.424C84.0843 34.424 84.4603 34.496 84.8123 34.64C85.1643 34.784 85.4763 34.98 85.7483 35.228C86.0203 35.468 86.2243 35.748 86.3603 36.068L85.5443 36.488C85.3843 36.144 85.1403 35.864 84.8123 35.648C84.4843 35.432 84.1083 35.324 83.6843 35.324C83.2603 35.324 82.8763 35.432 82.5323 35.648C82.1963 35.856 81.9283 36.148 81.7283 36.524C81.5363 36.892 81.4403 37.312 81.4403 37.784C81.4403 38.248 81.5363 38.668 81.7283 39.044C81.9283 39.412 82.1963 39.704 82.5323 39.92C82.8763 40.136 83.2603 40.244 83.6843 40.244C84.1083 40.244 84.4803 40.136 84.8003 39.92C85.1283 39.704 85.3763 39.416 85.5443 39.056L86.3603 39.5C86.2243 39.812 86.0203 40.092 85.7483 40.34C85.4763 40.588 85.1643 40.784 84.8123 40.928C84.4603 41.072 84.0843 41.144 83.6843 41.144ZM90.9516 41.144C90.3436 41.144 89.7916 41 89.2956 40.712C88.7996 40.416 88.4036 40.016 88.1076 39.512C87.8196 39 87.6756 38.42 87.6756 37.772C87.6756 37.132 87.8196 36.56 88.1076 36.056C88.3956 35.552 88.7836 35.156 89.2716 34.868C89.7676 34.572 90.3276 34.424 90.9516 34.424C91.5756 34.424 92.1316 34.568 92.6196 34.856C93.1156 35.144 93.5036 35.54 93.7836 36.044C94.0716 36.548 94.2156 37.124 94.2156 37.772C94.2156 38.428 94.0676 39.012 93.7716 39.524C93.4756 40.028 93.0796 40.424 92.5836 40.712C92.0956 41 91.5516 41.144 90.9516 41.144ZM90.9516 40.244C91.3836 40.244 91.7716 40.136 92.1156 39.92C92.4676 39.704 92.7436 39.408 92.9436 39.032C93.1516 38.656 93.2556 38.236 93.2556 37.772C93.2556 37.308 93.1516 36.892 92.9436 36.524C92.7436 36.156 92.4676 35.864 92.1156 35.648C91.7716 35.432 91.3836 35.324 90.9516 35.324C90.5196 35.324 90.1276 35.432 89.7756 35.648C89.4316 35.864 89.1556 36.156 88.9476 36.524C88.7396 36.892 88.6356 37.308 88.6356 37.772C88.6356 38.236 88.7396 38.656 88.9476 39.032C89.1556 39.408 89.4316 39.704 89.7756 39.92C90.1276 40.136 90.5196 40.244 90.9516 40.244ZM95.8029 41V34.568H96.7029V35.792L96.5589 35.612C96.7349 35.236 96.9949 34.944 97.3389 34.736C97.6909 34.528 98.0749 34.424 98.4909 34.424C98.9869 34.424 99.4349 34.564 99.8349 34.844C100.235 35.124 100.519 35.488 100.687 35.936L100.435 35.948C100.595 35.452 100.871 35.076 101.263 34.82C101.663 34.556 102.103 34.424 102.583 34.424C103.015 34.424 103.411 34.528 103.771 34.736C104.139 34.944 104.431 35.232 104.647 35.6C104.871 35.96 104.983 36.368 104.983 36.824V41H104.083V37.172C104.083 36.78 104.011 36.448 103.867 36.176C103.731 35.904 103.543 35.696 103.303 35.552C103.063 35.4 102.787 35.324 102.475 35.324C102.171 35.324 101.895 35.4 101.647 35.552C101.399 35.696 101.203 35.908 101.059 36.188C100.915 36.46 100.843 36.788 100.843 37.172V41H99.9429V37.172C99.9429 36.78 99.8709 36.448 99.7269 36.176C99.5909 35.904 99.4029 35.696 99.1629 35.552C98.9229 35.4 98.6469 35.324 98.3349 35.324C98.0229 35.324 97.7429 35.4 97.4949 35.552C97.2549 35.696 97.0629 35.908 96.9189 36.188C96.7749 36.46 96.7029 36.788 96.7029 37.172V41H95.8029ZM106.701 43.4V34.568H107.601V36.008L107.457 35.756C107.713 35.348 108.053 35.024 108.477 34.784C108.909 34.544 109.401 34.424 109.953 34.424C110.561 34.424 111.101 34.572 111.573 34.868C112.053 35.156 112.429 35.552 112.701 36.056C112.981 36.56 113.121 37.136 113.121 37.784C113.121 38.424 112.981 39 112.701 39.512C112.429 40.016 112.053 40.416 111.573 40.712C111.101 41 110.561 41.144 109.953 41.144C109.401 41.144 108.901 41.02 108.453 40.772C108.013 40.516 107.681 40.156 107.457 39.692L107.601 39.56V43.4H106.701ZM109.905 40.244C110.337 40.244 110.721 40.136 111.057 39.92C111.401 39.704 111.669 39.412 111.861 39.044C112.061 38.668 112.161 38.248 112.161 37.784C112.161 37.312 112.061 36.892 111.861 36.524C111.669 36.156 111.401 35.864 111.057 35.648C110.721 35.432 110.337 35.324 109.905 35.324C109.473 35.324 109.081 35.432 108.729 35.648C108.385 35.864 108.109 36.16 107.901 36.536C107.701 36.904 107.601 37.32 107.601 37.784C107.601 38.248 107.701 38.668 107.901 39.044C108.109 39.412 108.385 39.704 108.729 39.92C109.081 40.136 109.473 40.244 109.905 40.244ZM116.565 41.144C116.157 41.144 115.793 41.068 115.473 40.916C115.153 40.756 114.901 40.54 114.717 40.268C114.533 39.996 114.441 39.684 114.441 39.332C114.441 38.996 114.513 38.692 114.657 38.42C114.801 38.14 115.025 37.904 115.329 37.712C115.633 37.52 116.021 37.384 116.493 37.304L119.013 36.884V37.7L116.709 38.084C116.245 38.164 115.909 38.312 115.701 38.528C115.501 38.744 115.401 39 115.401 39.296C115.401 39.584 115.513 39.828 115.737 40.028C115.969 40.228 116.265 40.328 116.625 40.328C117.065 40.328 117.449 40.236 117.777 40.052C118.105 39.86 118.361 39.604 118.545 39.284C118.729 38.964 118.821 38.608 118.821 38.216V36.584C118.821 36.2 118.681 35.888 118.401 35.648C118.121 35.408 117.757 35.288 117.309 35.288C116.917 35.288 116.573 35.388 116.277 35.588C115.981 35.78 115.761 36.032 115.617 36.344L114.801 35.9C114.921 35.628 115.109 35.38 115.365 35.156C115.629 34.932 115.929 34.756 116.265 34.628C116.601 34.492 116.949 34.424 117.309 34.424C117.781 34.424 118.197 34.516 118.557 34.7C118.925 34.884 119.209 35.14 119.409 35.468C119.617 35.788 119.721 36.16 119.721 36.584V41H118.821V39.716L118.953 39.848C118.841 40.088 118.665 40.308 118.425 40.508C118.193 40.7 117.917 40.856 117.597 40.976C117.285 41.088 116.941 41.144 116.565 41.144ZM121.572 41V34.568H122.472V35.816L122.268 35.768C122.428 35.352 122.688 35.024 123.048 34.784C123.416 34.544 123.84 34.424 124.32 34.424C124.776 34.424 125.184 34.528 125.544 34.736C125.912 34.944 126.2 35.232 126.408 35.6C126.624 35.96 126.732 36.368 126.732 36.824V41H125.832V37.172C125.832 36.78 125.76 36.448 125.616 36.176C125.48 35.904 125.284 35.696 125.028 35.552C124.78 35.4 124.492 35.324 124.164 35.324C123.836 35.324 123.544 35.4 123.288 35.552C123.032 35.696 122.832 35.908 122.688 36.188C122.544 36.46 122.472 36.788 122.472 37.172V41H121.572ZM128.451 41V34.568H129.351V41H128.451ZM128.451 33.38V32.06H129.351V33.38H128.451ZM134.122 41.144C133.522 41.144 132.978 41 132.49 40.712C132.01 40.416 131.63 40.012 131.35 39.5C131.07 38.988 130.93 38.408 130.93 37.76C130.93 37.112 131.066 36.54 131.338 36.044C131.61 35.54 131.978 35.144 132.442 34.856C132.914 34.568 133.442 34.424 134.026 34.424C134.49 34.424 134.902 34.512 135.262 34.688C135.63 34.856 135.942 35.088 136.198 35.384C136.454 35.672 136.65 36 136.786 36.368C136.922 36.728 136.99 37.1 136.99 37.484C136.99 37.564 136.986 37.656 136.978 37.76C136.97 37.856 136.958 37.956 136.942 38.06H131.506V37.22H136.426L135.994 37.58C136.066 37.14 136.014 36.748 135.838 36.404C135.67 36.052 135.426 35.776 135.106 35.576C134.786 35.368 134.426 35.264 134.026 35.264C133.626 35.264 133.254 35.368 132.91 35.576C132.574 35.784 132.31 36.076 132.118 36.452C131.926 36.82 131.85 37.26 131.89 37.772C131.85 38.284 131.93 38.732 132.13 39.116C132.338 39.492 132.618 39.784 132.97 39.992C133.33 40.2 133.714 40.304 134.122 40.304C134.594 40.304 134.99 40.192 135.31 39.968C135.63 39.744 135.89 39.464 136.09 39.128L136.858 39.536C136.73 39.824 136.534 40.092 136.27 40.34C136.006 40.58 135.69 40.776 135.322 40.928C134.962 41.072 134.562 41.144 134.122 41.144ZM140.808 41.144C140.192 41.144 139.652 40.988 139.188 40.676C138.724 40.364 138.388 39.94 138.18 39.404L138.936 39.044C139.12 39.436 139.376 39.748 139.704 39.98C140.04 40.212 140.408 40.328 140.808 40.328C141.192 40.328 141.516 40.236 141.78 40.052C142.044 39.86 142.176 39.612 142.176 39.308C142.176 39.084 142.112 38.908 141.984 38.78C141.856 38.644 141.708 38.54 141.54 38.468C141.372 38.396 141.224 38.344 141.096 38.312L140.172 38.048C139.58 37.88 139.152 37.644 138.888 37.34C138.624 37.036 138.492 36.684 138.492 36.284C138.492 35.908 138.588 35.58 138.78 35.3C138.972 35.02 139.232 34.804 139.56 34.652C139.888 34.5 140.252 34.424 140.652 34.424C141.196 34.424 141.688 34.568 142.128 34.856C142.576 35.136 142.892 35.528 143.076 36.032L142.308 36.392C142.148 36.032 141.916 35.752 141.612 35.552C141.316 35.344 140.984 35.24 140.616 35.24C140.256 35.24 139.968 35.332 139.752 35.516C139.536 35.7 139.428 35.932 139.428 36.212C139.428 36.428 139.484 36.6 139.596 36.728C139.708 36.856 139.836 36.952 139.98 37.016C140.132 37.08 140.264 37.128 140.376 37.16L141.444 37.472C141.964 37.624 142.368 37.86 142.656 38.18C142.952 38.5 143.1 38.876 143.1 39.308C143.1 39.66 143 39.976 142.8 40.256C142.608 40.536 142.34 40.756 141.996 40.916C141.652 41.068 141.256 41.144 140.808 41.144Z" fill="#111827"/>
<path d="M55 118V112.9L67.24 99.82C69.64 97.26 71.52 95.2 72.88 93.64C74.28 92.04 75.28 90.64 75.88 89.44C76.52 88.24 76.84 86.98 76.84 85.66C76.84 83.5 76.18 81.84 74.86 80.68C73.54 79.48 71.84 78.88 69.76 78.88C67.6 78.88 65.74 79.5 64.18 80.74C62.62 81.94 61.54 83.7 60.94 86.02L54.7 84.22C55.18 81.86 56.14 79.82 57.58 78.1C59.02 76.34 60.78 74.98 62.86 74.02C64.98 73.06 67.26 72.58 69.7 72.58C72.54 72.58 75.02 73.12 77.14 74.2C79.26 75.24 80.9 76.7 82.06 78.58C83.26 80.46 83.86 82.64 83.86 85.12C83.86 86.76 83.54 88.36 82.9 89.92C82.3 91.44 81.36 93.06 80.08 94.78C78.8 96.46 77.16 98.36 75.16 100.48L64.36 112H84.7V118H55ZM106.759 118.72C103.639 118.72 100.899 118.12 98.5394 116.92C96.2194 115.68 94.4194 114.04 93.1394 112C91.8594 109.92 91.2194 107.62 91.2194 105.1C91.2194 102.22 91.9994 99.74 93.5594 97.66C95.1594 95.54 97.3994 94 100.279 93.04L99.9794 94.84C97.8594 94.04 96.1794 92.7 94.9394 90.82C93.7394 88.9 93.1394 86.8 93.1394 84.52C93.1394 82.24 93.7194 80.2 94.8794 78.4C96.0794 76.6 97.6994 75.18 99.7394 74.14C101.819 73.1 104.159 72.58 106.759 72.58C109.399 72.58 111.739 73.1 113.779 74.14C115.819 75.14 117.419 76.54 118.579 78.34C119.779 80.14 120.379 82.2 120.379 84.52C120.379 86.88 119.759 89 118.519 90.88C117.319 92.72 115.679 94.04 113.599 94.84L113.299 93.04C116.179 94.04 118.419 95.58 120.019 97.66C121.619 99.74 122.419 102.22 122.419 105.1C122.419 107.62 121.759 109.92 120.439 112C119.159 114.04 117.339 115.68 114.979 116.92C112.619 118.12 109.879 118.72 106.759 118.72ZM106.759 112.72C108.479 112.72 109.979 112.4 111.259 111.76C112.539 111.08 113.539 110.16 114.259 109C114.979 107.84 115.339 106.48 115.339 104.92C115.339 103.36 114.979 102 114.259 100.84C113.539 99.68 112.539 98.78 111.259 98.14C109.979 97.5 108.479 97.18 106.759 97.18C105.079 97.18 103.599 97.5 102.319 98.14C101.039 98.78 100.039 99.68 99.3194 100.84C98.5994 102 98.2394 103.36 98.2394 104.92C98.2394 106.48 98.5994 107.84 99.3194 109C100.039 110.16 101.039 111.08 102.319 111.76C103.599 112.4 105.079 112.72 106.759 112.72ZM106.759 91.18C108.039 91.18 109.159 90.92 110.119 90.4C111.119 89.84 111.899 89.08 112.459 88.12C113.019 87.16 113.299 86.08 113.299 84.88C113.299 83.64 113.019 82.56 112.459 81.64C111.899 80.68 111.119 79.94 110.119 79.42C109.159 78.86 108.039 78.58 106.759 78.58C105.519 78.58 104.399 78.86 103.399 79.42C102.399 79.94 101.619 80.68 101.059 81.64C100.499 82.56 100.219 83.64 100.219 84.88C100.219 86.08 100.499 87.16 101.059 88.12C101.619 89.08 102.399 89.84 103.399 90.4C104.399 90.92 105.519 91.18 106.759 91.18Z" fill="#111827"/>
<rect x="28" y="36" width="16" height="2" rx="1" fill="#111827"/>
</g>
<defs>
<filter id="filter0_f_67_1355" x="-190.71" y="-132.71" width="649.42" height="508.22" filterUnits="userSpaceOnUse" color-interpolation-filters="sRGB">
<feFlood flood-opacity="0" result="BackgroundImageFix"/>
<feBlend mode="normal" in="SourceGraphic" in2="BackgroundImageFix" result="shape"/>
<feGaussianBlur stdDeviation="28.355" result="effect1_foregroundBlur_67_1355"/>
</filter>
<clipPath id="clip0_67_1355">
<rect width="268" height="152" rx="4" fill="white"/>
</clipPath>
</defs>
</svg>
