<svg width="268" height="152" viewBox="0 0 268 152" fill="none" xmlns="http://www.w3.org/2000/svg">
<g clip-path="url(#clip0_67_1398)">
<g filter="url(#filter0_f_67_1398)">
<path d="M-134 -76H846.146V479.904H-134V-76Z" fill="#E9D5FF"/>
<path d="M234.942 2.63135L38.9126 145.265L225.695 355.191L392.135 77.6052" fill="white"/>
<path d="M388.436 -13.8267L146.174 53.8327L270.079 316.79L510.492 75.7763" fill="#D9F99D"/>
</g>
<path d="M54.604 41V32.96H52.132V32.06H58.012V32.96H55.564V41H54.604ZM61.2329 41.144C60.6249 41.144 60.0729 41 59.5769 40.712C59.0809 40.416 58.6849 40.016 58.3889 39.512C58.1009 39 57.9569 38.42 57.9569 37.772C57.9569 37.132 58.1009 36.56 58.3889 36.056C58.6769 35.552 59.0649 35.156 59.5529 34.868C60.0489 34.572 60.6089 34.424 61.2329 34.424C61.8569 34.424 62.4129 34.568 62.9009 34.856C63.3969 35.144 63.7849 35.54 64.0649 36.044C64.3529 36.548 64.4969 37.124 64.4969 37.772C64.4969 38.428 64.3489 39.012 64.0529 39.524C63.7569 40.028 63.3609 40.424 62.8649 40.712C62.3769 41 61.8329 41.144 61.2329 41.144ZM61.2329 40.244C61.6649 40.244 62.0529 40.136 62.3969 39.92C62.7489 39.704 63.0249 39.408 63.2249 39.032C63.4329 38.656 63.5369 38.236 63.5369 37.772C63.5369 37.308 63.4329 36.892 63.2249 36.524C63.0249 36.156 62.7489 35.864 62.3969 35.648C62.0529 35.432 61.6649 35.324 61.2329 35.324C60.8009 35.324 60.4089 35.432 60.0569 35.648C59.7129 35.864 59.4369 36.156 59.2289 36.524C59.0209 36.892 58.9169 37.308 58.9169 37.772C58.9169 38.236 59.0209 38.656 59.2289 39.032C59.4369 39.408 59.7129 39.704 60.0569 39.92C60.4089 40.136 60.8009 40.244 61.2329 40.244ZM68.427 41.072C67.851 41.072 67.407 40.904 67.095 40.568C66.783 40.232 66.627 39.752 66.627 39.128V35.468H65.439V34.568H65.739C66.011 34.568 66.227 34.48 66.387 34.304C66.547 34.12 66.627 33.892 66.627 33.62V33.08H67.527V34.568H68.943V35.468H67.527V39.128C67.527 39.344 67.559 39.536 67.623 39.704C67.687 39.864 67.795 39.992 67.947 40.088C68.107 40.184 68.319 40.232 68.583 40.232C68.647 40.232 68.723 40.228 68.811 40.22C68.899 40.212 68.975 40.204 69.039 40.196V41C68.943 41.024 68.835 41.04 68.715 41.048C68.595 41.064 68.499 41.072 68.427 41.072ZM72.3621 41.144C71.9541 41.144 71.5901 41.068 71.2701 40.916C70.9501 40.756 70.6981 40.54 70.5141 40.268C70.3301 39.996 70.2381 39.684 70.2381 39.332C70.2381 38.996 70.3101 38.692 70.4541 38.42C70.5981 38.14 70.8221 37.904 71.1261 37.712C71.4301 37.52 71.8181 37.384 72.2901 37.304L74.8101 36.884V37.7L72.5061 38.084C72.0421 38.164 71.7061 38.312 71.4981 38.528C71.2981 38.744 71.1981 39 71.1981 39.296C71.1981 39.584 71.3101 39.828 71.5341 40.028C71.7661 40.228 72.0621 40.328 72.4221 40.328C72.8621 40.328 73.2461 40.236 73.5741 40.052C73.9021 39.86 74.1581 39.604 74.3421 39.284C74.5261 38.964 74.6181 38.608 74.6181 38.216V36.584C74.6181 36.2 74.4781 35.888 74.1981 35.648C73.9181 35.408 73.5541 35.288 73.1061 35.288C72.7141 35.288 72.3701 35.388 72.0741 35.588C71.7781 35.78 71.5581 36.032 71.4141 36.344L70.5981 35.9C70.7181 35.628 70.9061 35.38 71.1621 35.156C71.4261 34.932 71.7261 34.756 72.0621 34.628C72.3981 34.492 72.7461 34.424 73.1061 34.424C73.5781 34.424 73.9941 34.516 74.3541 34.7C74.7221 34.884 75.0061 35.14 75.2061 35.468C75.4141 35.788 75.5181 36.16 75.5181 36.584V41H74.6181V39.716L74.7501 39.848C74.6381 40.088 74.4621 40.308 74.2221 40.508C73.9901 40.7 73.7141 40.856 73.3941 40.976C73.0821 41.088 72.7381 41.144 72.3621 41.144ZM77.3693 41V31.916H78.2693V41H77.3693ZM85.0906 41.144C84.4586 41.144 83.9026 40.996 83.4226 40.7C82.9426 40.404 82.5666 40.004 82.2946 39.5C82.0226 38.988 81.8866 38.412 81.8866 37.772C81.8866 37.132 82.0226 36.56 82.2946 36.056C82.5666 35.552 82.9426 35.156 83.4226 34.868C83.9026 34.572 84.4586 34.424 85.0906 34.424C85.4906 34.424 85.8666 34.496 86.2186 34.64C86.5706 34.784 86.8826 34.98 87.1546 35.228C87.4266 35.468 87.6306 35.748 87.7666 36.068L86.9506 36.488C86.7906 36.144 86.5466 35.864 86.2186 35.648C85.8906 35.432 85.5146 35.324 85.0906 35.324C84.6666 35.324 84.2826 35.432 83.9386 35.648C83.6026 35.856 83.3346 36.148 83.1346 36.524C82.9426 36.892 82.8466 37.312 82.8466 37.784C82.8466 38.248 82.9426 38.668 83.1346 39.044C83.3346 39.412 83.6026 39.704 83.9386 39.92C84.2826 40.136 84.6666 40.244 85.0906 40.244C85.5146 40.244 85.8866 40.136 86.2066 39.92C86.5346 39.704 86.7826 39.416 86.9506 39.056L87.7666 39.5C87.6306 39.812 87.4266 40.092 87.1546 40.34C86.8826 40.588 86.5706 40.784 86.2186 40.928C85.8666 41.072 85.4906 41.144 85.0906 41.144ZM91.0887 41.144C90.6807 41.144 90.3167 41.068 89.9967 40.916C89.6767 40.756 89.4247 40.54 89.2407 40.268C89.0567 39.996 88.9647 39.684 88.9647 39.332C88.9647 38.996 89.0367 38.692 89.1807 38.42C89.3247 38.14 89.5487 37.904 89.8527 37.712C90.1567 37.52 90.5447 37.384 91.0167 37.304L93.5367 36.884V37.7L91.2327 38.084C90.7687 38.164 90.4327 38.312 90.2247 38.528C90.0247 38.744 89.9247 39 89.9247 39.296C89.9247 39.584 90.0367 39.828 90.2607 40.028C90.4927 40.228 90.7887 40.328 91.1487 40.328C91.5887 40.328 91.9727 40.236 92.3007 40.052C92.6287 39.86 92.8847 39.604 93.0687 39.284C93.2527 38.964 93.3447 38.608 93.3447 38.216V36.584C93.3447 36.2 93.2047 35.888 92.9247 35.648C92.6447 35.408 92.2807 35.288 91.8327 35.288C91.4407 35.288 91.0967 35.388 90.8007 35.588C90.5047 35.78 90.2847 36.032 90.1407 36.344L89.3247 35.9C89.4447 35.628 89.6327 35.38 89.8887 35.156C90.1527 34.932 90.4527 34.756 90.7887 34.628C91.1247 34.492 91.4727 34.424 91.8327 34.424C92.3047 34.424 92.7207 34.516 93.0807 34.7C93.4487 34.884 93.7327 35.14 93.9327 35.468C94.1407 35.788 94.2447 36.16 94.2447 36.584V41H93.3447V39.716L93.4767 39.848C93.3647 40.088 93.1887 40.308 92.9487 40.508C92.7167 40.7 92.4407 40.856 92.1207 40.976C91.8087 41.088 91.4647 41.144 91.0887 41.144ZM98.4387 41.072C97.8627 41.072 97.4187 40.904 97.1067 40.568C96.7947 40.232 96.6387 39.752 96.6387 39.128V35.468H95.4507V34.568H95.7507C96.0227 34.568 96.2387 34.48 96.3987 34.304C96.5587 34.12 96.6387 33.892 96.6387 33.62V33.08H97.5387V34.568H98.9547V35.468H97.5387V39.128C97.5387 39.344 97.5707 39.536 97.6347 39.704C97.6987 39.864 97.8067 39.992 97.9587 40.088C98.1187 40.184 98.3307 40.232 98.5947 40.232C98.6587 40.232 98.7347 40.228 98.8227 40.22C98.9107 40.212 98.9867 40.204 99.0507 40.196V41C98.9547 41.024 98.8467 41.04 98.7267 41.048C98.6067 41.064 98.5107 41.072 98.4387 41.072ZM103.325 41.144C102.725 41.144 102.181 41 101.693 40.712C101.213 40.416 100.833 40.012 100.553 39.5C100.273 38.988 100.133 38.408 100.133 37.76C100.133 37.112 100.269 36.54 100.541 36.044C100.813 35.54 101.181 35.144 101.645 34.856C102.117 34.568 102.645 34.424 103.229 34.424C103.693 34.424 104.105 34.512 104.465 34.688C104.833 34.856 105.145 35.088 105.401 35.384C105.657 35.672 105.853 36 105.989 36.368C106.125 36.728 106.193 37.1 106.193 37.484C106.193 37.564 106.189 37.656 106.181 37.76C106.173 37.856 106.161 37.956 106.145 38.06H100.709V37.22H105.629L105.197 37.58C105.269 37.14 105.217 36.748 105.041 36.404C104.873 36.052 104.629 35.776 104.309 35.576C103.989 35.368 103.629 35.264 103.229 35.264C102.829 35.264 102.457 35.368 102.113 35.576C101.777 35.784 101.513 36.076 101.321 36.452C101.129 36.82 101.053 37.26 101.093 37.772C101.053 38.284 101.133 38.732 101.333 39.116C101.541 39.492 101.821 39.784 102.173 39.992C102.533 40.2 102.917 40.304 103.325 40.304C103.797 40.304 104.193 40.192 104.513 39.968C104.833 39.744 105.093 39.464 105.293 39.128L106.061 39.536C105.933 39.824 105.737 40.092 105.473 40.34C105.209 40.58 104.893 40.776 104.525 40.928C104.165 41.072 103.765 41.144 103.325 41.144ZM110.827 43.64C110.387 43.64 109.979 43.572 109.603 43.436C109.235 43.3 108.915 43.112 108.643 42.872C108.379 42.64 108.175 42.368 108.031 42.056L108.859 41.612C108.987 41.916 109.215 42.18 109.543 42.404C109.871 42.628 110.291 42.74 110.803 42.74C111.195 42.74 111.555 42.664 111.883 42.512C112.211 42.36 112.475 42.136 112.675 41.84C112.875 41.544 112.975 41.18 112.975 40.748V39.32L113.119 39.452C112.895 39.916 112.563 40.276 112.123 40.532C111.683 40.78 111.203 40.904 110.683 40.904C110.083 40.904 109.543 40.76 109.063 40.472C108.583 40.184 108.203 39.796 107.923 39.308C107.651 38.812 107.515 38.264 107.515 37.664C107.515 37.056 107.651 36.508 107.923 36.02C108.203 35.532 108.579 35.144 109.051 34.856C109.531 34.568 110.075 34.424 110.683 34.424C111.203 34.424 111.675 34.544 112.099 34.784C112.531 35.024 112.871 35.348 113.119 35.756L112.975 36.008V34.568H113.875V40.748C113.875 41.3 113.743 41.792 113.479 42.224C113.223 42.664 112.863 43.008 112.399 43.256C111.943 43.512 111.419 43.64 110.827 43.64ZM110.731 40.004C111.147 40.004 111.523 39.9 111.859 39.692C112.195 39.476 112.463 39.192 112.663 38.84C112.871 38.48 112.975 38.088 112.975 37.664C112.975 37.24 112.871 36.852 112.663 36.5C112.463 36.14 112.195 35.856 111.859 35.648C111.523 35.432 111.147 35.324 110.731 35.324C110.307 35.324 109.923 35.432 109.579 35.648C109.235 35.856 108.963 36.136 108.763 36.488C108.571 36.84 108.475 37.232 108.475 37.664C108.475 38.088 108.571 38.48 108.763 38.84C108.963 39.192 109.231 39.476 109.567 39.692C109.911 39.9 110.299 40.004 110.731 40.004ZM118.737 41.144C118.129 41.144 117.577 41 117.081 40.712C116.585 40.416 116.189 40.016 115.893 39.512C115.605 39 115.461 38.42 115.461 37.772C115.461 37.132 115.605 36.56 115.893 36.056C116.181 35.552 116.569 35.156 117.057 34.868C117.553 34.572 118.113 34.424 118.737 34.424C119.361 34.424 119.917 34.568 120.405 34.856C120.901 35.144 121.289 35.54 121.569 36.044C121.857 36.548 122.001 37.124 122.001 37.772C122.001 38.428 121.853 39.012 121.557 39.524C121.261 40.028 120.865 40.424 120.369 40.712C119.881 41 119.337 41.144 118.737 41.144ZM118.737 40.244C119.169 40.244 119.557 40.136 119.901 39.92C120.253 39.704 120.529 39.408 120.729 39.032C120.937 38.656 121.041 38.236 121.041 37.772C121.041 37.308 120.937 36.892 120.729 36.524C120.529 36.156 120.253 35.864 119.901 35.648C119.557 35.432 119.169 35.324 118.737 35.324C118.305 35.324 117.913 35.432 117.561 35.648C117.217 35.864 116.941 36.156 116.733 36.524C116.525 36.892 116.421 37.308 116.421 37.772C116.421 38.236 116.525 38.656 116.733 39.032C116.941 39.408 117.217 39.704 117.561 39.92C117.913 40.136 118.305 40.244 118.737 40.244ZM123.588 41V34.568H124.488V35.624L124.368 35.468C124.52 35.164 124.748 34.924 125.052 34.748C125.364 34.572 125.74 34.484 126.18 34.484H126.588V35.384H126.024C125.56 35.384 125.188 35.528 124.908 35.816C124.628 36.104 124.488 36.512 124.488 37.04V41H123.588ZM127.775 43.64C127.647 43.64 127.515 43.628 127.379 43.604C127.251 43.588 127.123 43.556 126.995 43.508V42.668C127.075 42.676 127.175 42.688 127.295 42.704C127.423 42.728 127.551 42.74 127.679 42.74C128.071 42.74 128.371 42.656 128.579 42.488C128.787 42.328 128.991 42.016 129.191 41.552L129.599 40.592L129.575 41.384L126.851 34.568H127.823L130.055 40.196H129.803L132.023 34.568H133.019L130.079 41.816C129.951 42.128 129.787 42.424 129.587 42.704C129.395 42.984 129.151 43.208 128.855 43.376C128.559 43.552 128.199 43.64 127.775 43.64Z" fill="#111827"/>
<path d="M70.9 118.72C67.78 118.72 65.04 118.12 62.68 116.92C60.36 115.68 58.56 114.04 57.28 112C56 109.92 55.36 107.62 55.36 105.1C55.36 102.22 56.14 99.74 57.7 97.66C59.3 95.54 61.54 94 64.42 93.04L64.12 94.84C62 94.04 60.32 92.7 59.08 90.82C57.88 88.9 57.28 86.8 57.28 84.52C57.28 82.24 57.86 80.2 59.02 78.4C60.22 76.6 61.84 75.18 63.88 74.14C65.96 73.1 68.3 72.58 70.9 72.58C73.54 72.58 75.88 73.1 77.92 74.14C79.96 75.14 81.56 76.54 82.72 78.34C83.92 80.14 84.52 82.2 84.52 84.52C84.52 86.88 83.9 89 82.66 90.88C81.46 92.72 79.82 94.04 77.74 94.84L77.44 93.04C80.32 94.04 82.56 95.58 84.16 97.66C85.76 99.74 86.56 102.22 86.56 105.1C86.56 107.62 85.9 109.92 84.58 112C83.3 114.04 81.48 115.68 79.12 116.92C76.76 118.12 74.02 118.72 70.9 118.72ZM70.9 112.72C72.62 112.72 74.12 112.4 75.4 111.76C76.68 111.08 77.68 110.16 78.4 109C79.12 107.84 79.48 106.48 79.48 104.92C79.48 103.36 79.12 102 78.4 100.84C77.68 99.68 76.68 98.78 75.4 98.14C74.12 97.5 72.62 97.18 70.9 97.18C69.22 97.18 67.74 97.5 66.46 98.14C65.18 98.78 64.18 99.68 63.46 100.84C62.74 102 62.38 103.36 62.38 104.92C62.38 106.48 62.74 107.84 63.46 109C64.18 110.16 65.18 111.08 66.46 111.76C67.74 112.4 69.22 112.72 70.9 112.72ZM70.9 91.18C72.18 91.18 73.3 90.92 74.26 90.4C75.26 89.84 76.04 89.08 76.6 88.12C77.16 87.16 77.44 86.08 77.44 84.88C77.44 83.64 77.16 82.56 76.6 81.64C76.04 80.68 75.26 79.94 74.26 79.42C73.3 78.86 72.18 78.58 70.9 78.58C69.66 78.58 68.54 78.86 67.54 79.42C66.54 79.94 65.76 80.68 65.2 81.64C64.64 82.56 64.36 83.64 64.36 84.88C64.36 86.08 64.64 87.16 65.2 88.12C65.76 89.08 66.54 89.84 67.54 90.4C68.54 90.92 69.66 91.18 70.9 91.18Z" fill="#111827"/>
<rect x="28" y="36" width="16" height="2" rx="1" fill="#111827"/>
</g>
<defs>
<filter id="filter0_f_67_1398" x="-190.71" y="-132.71" width="1093.57" height="813.42" filterUnits="userSpaceOnUse" color-interpolation-filters="sRGB">
<feFlood flood-opacity="0" result="BackgroundImageFix"/>
<feBlend mode="normal" in="SourceGraphic" in2="BackgroundImageFix" result="shape"/>
<feGaussianBlur stdDeviation="28.355" result="effect1_foregroundBlur_67_1398"/>
</filter>
<clipPath id="clip0_67_1398">
<rect width="268" height="152" rx="4" fill="white"/>
</clipPath>
</defs>
</svg>
